<svg id="Layer_1" data-name="Layer 1" xmlns="http://www.w3.org/2000/svg" viewBox="0 0 16 16"><defs><style>.cls-1{fill:#c5c5c5;}.cls-2{fill:#2d2d2d;}</style></defs><g id="JyoaXt"><path class="cls-1" d="M2.61,8c0-1.24,0-2.48,0-3.72A1.55,1.55,0,0,1,3.22,3,4.29,4.29,0,0,1,5,2.2a12.63,12.63,0,0,1,6.6.15,3.22,3.22,0,0,1,1.32.72,1.45,1.45,0,0,1,.51,1.16q0,3.75,0,7.5a1.57,1.57,0,0,1-.63,1.3,4.24,4.24,0,0,1-1.66.75,12.74,12.74,0,0,1-4,.35,10.74,10.74,0,0,1-3-.61,3,3,0,0,1-1-.62,1.43,1.43,0,0,1-.48-1.11ZM8,6.46a11.2,11.2,0,0,0,2.71-.29,4.6,4.6,0,0,0,1.52-.62.83.83,0,0,0,.41-.78c0-.18,0-.37,0-.55a.71.71,0,0,0-.25-.58,2.46,2.46,0,0,0-.88-.49,8.64,8.64,0,0,0-2.71-.53,12.19,12.19,0,0,0-3.51.27,4.5,4.5,0,0,0-1.5.62.81.81,0,0,0-.41.78,3.84,3.84,0,0,1,0,.48.75.75,0,0,0,.39.76,6.23,6.23,0,0,0,1,.48A9.76,9.76,0,0,0,8,6.46ZM3.37,6.24c0,.3,0,.6,0,.89a.78.78,0,0,0,.27.63,3.11,3.11,0,0,0,1,.53,8.83,8.83,0,0,0,2.55.46,11.44,11.44,0,0,0,3.5-.27,4.4,4.4,0,0,0,1.52-.62.74.74,0,0,0,.38-.52c0-.36,0-.73,0-1.12l-.23.14a2.53,2.53,0,0,1-.23.12A7.52,7.52,0,0,1,9,7.18a22.59,22.59,0,0,1-2.47,0,7,7,0,0,1-2.3-.48C4,6.55,3.68,6.39,3.37,6.24Zm0,2.34v.89a.68.68,0,0,0,.25.57,2.44,2.44,0,0,0,.87.5,8.64,8.64,0,0,0,2.71.53,12,12,0,0,0,3.49-.27,4.74,4.74,0,0,0,1.53-.62.84.84,0,0,0,.41-.79c0-.24,0-.48,0-.72a.69.69,0,0,0,0-.13l-.23.14a6.64,6.64,0,0,1-2.92.79c-.83,0-1.68,0-2.51,0a7.59,7.59,0,0,1-2.41-.42C4.14,8.94,3.77,8.75,3.37,8.58Zm9.26,2.27-.08,0a5.62,5.62,0,0,1-2.14.77,14.8,14.8,0,0,1-4.65,0A5.63,5.63,0,0,1,3.61,11l-.24-.14c0,.33,0,.63,0,.92a.74.74,0,0,0,.26.61,2.93,2.93,0,0,0,1,.55,9.24,9.24,0,0,0,2.55.46,11.86,11.86,0,0,0,3.51-.28,4.16,4.16,0,0,0,1.51-.62.77.77,0,0,0,.4-.59C12.64,11.55,12.63,11.21,12.63,10.85Z"/><path class="cls-2" d="M8,1.84a12.82,12.82,0,0,1,3.56.51,3.22,3.22,0,0,1,1.32.72,1.45,1.45,0,0,1,.51,1.16q0,3.75,0,7.5a1.57,1.57,0,0,1-.63,1.3,4.24,4.24,0,0,1-1.66.75A12.94,12.94,0,0,1,8,14.16l-.94,0a10.74,10.74,0,0,1-3-.61,3,3,0,0,1-1-.62,1.43,1.43,0,0,1-.48-1.11V8c0-1.24,0-2.48,0-3.72A1.55,1.55,0,0,1,3.22,3,4.29,4.29,0,0,1,5,2.2a13.21,13.21,0,0,1,3-.36M8,6.46a11,11,0,0,0,2.68-.29,4.6,4.6,0,0,0,1.52-.62.83.83,0,0,0,.41-.78c0-.18,0-.37,0-.55a.71.71,0,0,0-.25-.58,2.46,2.46,0,0,0-.88-.49,8.64,8.64,0,0,0-2.71-.53c-.29,0-.57,0-.86,0a11.33,11.33,0,0,0-2.65.29,4.5,4.5,0,0,0-1.5.62.81.81,0,0,0-.41.78,3.84,3.84,0,0,1,0,.48.75.75,0,0,0,.39.76,6.23,6.23,0,0,0,1,.48A9.76,9.76,0,0,0,8,6.46H8m.17.74c-.54,0-1.09,0-1.63,0a7,7,0,0,1-2.3-.48c-.3-.12-.58-.28-.89-.43,0,.3,0,.6,0,.89a.78.78,0,0,0,.27.63,3.11,3.11,0,0,0,1,.53,8.83,8.83,0,0,0,2.55.46c.28,0,.57,0,.86,0a10.7,10.7,0,0,0,2.64-.3,4.4,4.4,0,0,0,1.52-.62.74.74,0,0,0,.38-.52c0-.36,0-.73,0-1.12l-.23.14a2.53,2.53,0,0,1-.23.12A7.52,7.52,0,0,1,9,7.18c-.28,0-.56,0-.84,0M7.91,9.51H7a7.59,7.59,0,0,1-2.41-.42c-.4-.14-.77-.33-1.17-.5v.89a.68.68,0,0,0,.25.57,2.44,2.44,0,0,0,.87.5,8.64,8.64,0,0,0,2.71.53l.87,0a11,11,0,0,0,2.62-.29,4.74,4.74,0,0,0,1.53-.62.84.84,0,0,0,.41-.79c0-.24,0-.48,0-.72a.69.69,0,0,0,0-.13l-.23.14a6.64,6.64,0,0,1-2.92.79c-.51,0-1,0-1.55,0m.16,3.89a10.83,10.83,0,0,0,2.65-.3,4.16,4.16,0,0,0,1.51-.62.77.77,0,0,0,.4-.59c0-.34,0-.68,0-1l-.08,0a5.62,5.62,0,0,1-2.14.77,14.92,14.92,0,0,1-2.39.2,15.52,15.52,0,0,1-2.26-.17A5.63,5.63,0,0,1,3.61,11l-.24-.14c0,.33,0,.63,0,.92a.74.74,0,0,0,.26.61,2.93,2.93,0,0,0,1,.55,9.24,9.24,0,0,0,2.55.46c.29,0,.57,0,.86,0M8,.84H8a14.11,14.11,0,0,0-3.27.39,5.24,5.24,0,0,0-2.14,1,2.59,2.59,0,0,0-1,2.07c0,.88,0,1.76,0,2.64v4.88a2.44,2.44,0,0,0,.79,1.84,3.91,3.91,0,0,0,1.32.82A11.37,11.37,0,0,0,7,15.12c.34,0,.68,0,1,0a14.12,14.12,0,0,0,3.33-.41,5.18,5.18,0,0,0,2.05-.95,2.55,2.55,0,0,0,1-2.07q0-3.75,0-7.49a2.45,2.45,0,0,0-.84-1.91,4.23,4.23,0,0,0-1.72-.94A13.59,13.59,0,0,0,8,.84Z"/></g></svg>