<svg id="Layer_1" data-name="Layer 1" xmlns="http://www.w3.org/2000/svg" viewBox="0 0 16 16"><defs><style>.cls-1{fill:#535353;}</style></defs><g id="XsgKWm"><path class="cls-1" d="M12.58,3.83a6.16,6.16,0,0,0-3.3-1.89A6.06,6.06,0,0,0,4.09,3.15,6.27,6.27,0,0,0,1.93,6.64,3,3,0,0,1,1.86,7c-.1.35-.33.52-.63.46a.57.57,0,0,1-.44-.69A7,7,0,0,1,2,3.76,7.13,7.13,0,0,1,8.31.69a7.1,7.1,0,0,1,4.8,2.1l.17.16.05,0,.17-.15,1.43-1.39a.51.51,0,0,1,.61-.16.57.57,0,0,1,.35.56v4.4a.55.55,0,0,1-.62.62h-4.4a.54.54,0,0,1-.56-.34.55.55,0,0,1,.17-.64L12.36,4A2.38,2.38,0,0,1,12.58,3.83Zm2.18,1.91V3.3L12.32,5.74Z"/><path class="cls-1" d="M3.45,12.2a5.9,5.9,0,0,0,3,1.81,6.13,6.13,0,0,0,7.59-4.8,1.16,1.16,0,0,1,0-.18.54.54,0,0,1,.63-.46.59.59,0,0,1,.47.7A7.23,7.23,0,0,1,13,13.38a7.12,7.12,0,0,1-5.12,1.93,7.18,7.18,0,0,1-5-2.1l-.17-.16-.06,0-.7.68-.89.87a.51.51,0,0,1-.61.15.55.55,0,0,1-.35-.56V9.76a.56.56,0,0,1,.62-.63H5.15a.56.56,0,0,1,.55.37.49.49,0,0,1-.18.58c-.65.66-1.3,1.33-2,2Zm-2.22.54,2.48-2.47H1.23Z"/></g></svg>