<svg id="Layer_1" data-name="Layer 1" xmlns="http://www.w3.org/2000/svg" viewBox="0 0 50.83 55.77"><defs><style>.cls-1{fill:#4f5360;}</style></defs><path class="cls-1" d="M49,12.39,27.53.26a2.06,2.06,0,0,0-1-.26h-2a2.06,2.06,0,0,0-1,.26L2.14,12.39A7.69,7.69,0,0,0,0,15.68V40.23c0,.71,1.63,2.86,2.14,3.15L23.58,55.51a2.06,2.06,0,0,0,1,.26h2a2.06,2.06,0,0,0,1-.26L49,43.38a6.93,6.93,0,0,0,1.86-3.15V15.68A7.09,7.09,0,0,0,49,12.39ZM2,15.76l.14.11,6.69,3.79.93.54v.09a2,2,0,0,0-.17.75V35.68L2.14,39.9,2,40ZM48.83,39.82l-7.34-4.16c-.05,0-.12,0-.18-.07V21a1.94,1.94,0,0,0-.18-.79,1.61,1.61,0,0,0,.36-.15L48.83,16ZM11.76,21.28l12.41,7.54.16.07V42.62L11.76,35.76Zm14.8,7.34,4.71-2.86,7.8-4.58V35.85s0,0,0,.06L26.57,42.73V28.66S26.56,28.63,26.56,28.62ZM38,19.35,30.25,24l-4.8,2.82L12.81,19.44,25.53,12.5l0,0,0,0,4.1,2.24ZM47.75,14l-7.38,4.29L30.65,13l-4.08-2.28V2ZM24.54,2v8.7l-13,6.87a1.93,1.93,0,0,0-.76.71l-.15.07-.77-.44L3.22,14.08ZM3.35,41.76l7.33-4.13,12.93,7a2,2,0,0,0,.67.2l.27.15h0v8.73Zm23.22,12V45h0l.46-.25.26-.1,12.89-7,7.44,4.19Z"/></svg>